<svg xmlns="http://www.w3.org/2000/svg" enable-background="new 0 0 48 48" viewBox="0 0 48 48"><circle cx="24" cy="24" r="24" fill="#279fd9"/><path fill="#fff" d="M37.25 37.5h-1.661l-1.874-4.686c-.001-.001-.002-.002-.003-.004-.02-.05-.052-.093-.087-.133-.008-.009-.012-.022-.02-.03-.031-.031-.07-.051-.108-.073-.018-.01-.032-.026-.051-.034-.011-.005-.024-.004-.036-.008-.051-.017-.102-.031-.157-.032-.001 0-.002-.001-.003-.001H20.767l-1.988-11.203 1.477-.262c0 0 0 0 0 0l5.907-1.048c.13-.023.247-.097.322-.206.076-.108.106-.243.083-.374-.604-3.402-4.59-5.567-9.009-4.984l-.091-.511c-.048-.271-.302-.454-.58-.405-.272.048-.453.308-.405.58l.091.51c-2.009.449-3.79 1.415-5.052 2.764-1.4 1.498-2.001 3.279-1.693 5.016.043.242.254.413.492.413.029 0 .058-.002.088-.008l7.385-1.31L19.752 32.5h-4.234l-3.852-5.777c-.153-.23-.463-.292-.693-.139-.23.153-.292.463-.139.693l3.854 5.781L12.911 37.5H10.25c-.276 0-.5.224-.5.5s.224.5.5.5h27c.276 0 .5-.224.5-.5S37.526 37.5 37.25 37.5zM16.56 17.034c.172-1.167.519-1.53.678-1.558.012-.002.025-.003.038-.003.501 0 1.67 1.571 2.306 4.665l-2.94.522C16.441 19.314 16.412 18.042 16.56 17.034zM20.565 19.964c-.357-1.729-.962-3.37-1.702-4.402 1.68.444 3.134 1.984 3.662 4.054L20.565 19.964zM14.411 17.58c.35-.614.805-1.102 1.325-1.465-.064.229-.122.478-.165.774-.163 1.107-.122 2.495.096 3.944l-1.967.349C13.566 19.889 13.813 18.626 14.411 17.58zM25.466 19.095l-1.96.348c-.4-1.633-1.301-2.995-2.461-3.888C23.225 16.055 24.926 17.339 25.466 19.095zM12.253 18.044c.406-.434.892-.807 1.409-1.148-.039.063-.082.122-.12.188-.712 1.246-.976 2.746-.806 4.269l-1.98.351C10.691 20.442 11.211 19.159 12.253 18.044zM32.911 33.5l1.6 4H21.654l-.71-4H32.911zM15.589 33.5h4.34l.71 4h-6.65L15.589 33.5zM32.75 17.5c1.378 0 2.5-1.122 2.5-2.5s-1.122-2.5-2.5-2.5-2.5 1.122-2.5 2.5S31.372 17.5 32.75 17.5zM32.75 13.5c.827 0 1.5.673 1.5 1.5s-.673 1.5-1.5 1.5-1.5-.673-1.5-1.5S31.923 13.5 32.75 13.5zM32.75 11.5c.276 0 .5-.224.5-.5v-1c0-.276-.224-.5-.5-.5s-.5.224-.5.5v1C32.25 11.276 32.474 11.5 32.75 11.5zM32.25 19v1c0 .276.224.5.5.5s.5-.224.5-.5v-1c0-.276-.224-.5-.5-.5S32.25 18.724 32.25 19zM37.75 14.5h-1c-.276 0-.5.224-.5.5s.224.5.5.5h1c.276 0 .5-.224.5-.5S38.026 14.5 37.75 14.5zM27.75 15.5h1c.276 0 .5-.224.5-.5s-.224-.5-.5-.5h-1c-.276 0-.5.224-.5.5S27.474 15.5 27.75 15.5zM35.579 12.671c.128 0 .256-.049.354-.146l.707-.707c.195-.195.195-.512 0-.707s-.512-.195-.707 0l-.707.707c-.195.195-.195.512 0 .707C35.323 12.623 35.451 12.671 35.579 12.671zM29.568 17.475l-.707.707c-.195.195-.195.512 0 .707.098.098.226.146.354.146s.256-.049.354-.146l.707-.707c.195-.195.195-.512 0-.707S29.763 17.28 29.568 17.475zM35.225 17.475c-.195.195-.195.512 0 .707l.707.707c.098.098.226.146.354.146s.256-.049.354-.146c.195-.195.195-.512 0-.707l-.707-.707C35.737 17.28 35.42 17.28 35.225 17.475zM29.568 12.525c.098.098.226.146.354.146s.256-.049.354-.146c.195-.195.195-.512 0-.707l-.707-.707c-.195-.195-.512-.195-.707 0s-.195.512 0 .707L29.568 12.525z"/></svg>