<?xml version="1.0" ?><svg viewBox="0 0 64 64" xmlns="http://www.w3.org/2000/svg"><defs><style>.cls-1{fill:#c1c8d1;}.cls-2{fill:#54585e;}.cls-3{fill:#fff;}.cls-4{fill:#e6e9ed;}.cls-5{fill:#f9d18b;}.cls-6{fill:#758190;}.cls-7{fill:#64a5f8;}.cls-8{fill:#83b7f9;}.cls-9{fill:#ef7955;}.cls-10{fill:#7fcdee;}.cls-11{fill:#b2e1f5;}.cls-12{fill:none;stroke:#000;stroke-linejoin:round;stroke-width:2px;}</style></defs><title/><g data-name="Layer 31" id="Layer_31"><path class="cls-1" d="M12,38.18V20H8V39.618A11.907,11.907,0,0,1,12,38.18Z"/><rect class="cls-1" height="4" rx="2" width="10" x="16" y="23"/><circle class="cls-2" cx="14" cy="50" r="12"/><circle class="cls-3" cx="14" cy="50" r="8"/><rect class="cls-1" height="8" rx="4" width="20" x="10" y="46"/><path class="cls-4" d="M22.419,46H14a4,4,0,0,0-4,4,3.957,3.957,0,0,0,.38,1.677A11.032,11.032,0,0,0,13,52,9.983,9.983,0,0,0,22.419,46Z"/><path class="cls-2" d="M58.926,58a12,12,0,1,0-17.852,0Z"/><circle class="cls-3" cx="50" cy="50" r="8"/><polygon class="cls-5" points="54 58 51 55 49 55 46 58 40 58 47 51 53 51 60 58 54 58"/><path class="cls-6" d="M51.723,51a2,2,0,1,0-3.446,0Z"/><rect class="cls-5" height="4" width="24" x="38" y="58"/><rect class="cls-7" height="18" width="16" x="2" y="2"/><path class="cls-8" d="M2,18.925A18.6,18.6,0,0,0,14.973,2H2Z"/><circle class="cls-9" cx="43" cy="8" r="6"/><path class="cls-10" d="M37,8a2.982,2.982,0,0,0-1.08.208,4,4,0,0,0-7.84,0,3,3,0,1,0,1.114,4.825,2.985,2.985,0,0,0,5.612,0A3,3,0,1,0,37,8Z"/><path class="cls-11" d="M27,11c3.18,0,5.968-2.02,7.569-5.063A4,4,0,0,0,28.08,8.208a2.982,2.982,0,0,0-4.017,2.181A7.522,7.522,0,0,0,27,11Z"/><path class="cls-10" d="M59,8a2.982,2.982,0,0,0-1.08.208,4,4,0,0,0-7.84,0,3,3,0,1,0,1.114,4.825,2.985,2.985,0,0,0,5.612,0A3,3,0,1,0,59,8Z"/><path class="cls-11" d="M49,11c3.18,0,5.968-2.02,7.569-5.063A4,4,0,0,0,50.08,8.208a2.982,2.982,0,0,0-4.017,2.181A7.522,7.522,0,0,0,49,11Z"/><path class="cls-12" d="M25.317,54a12,12,0,1,1,0-8"/><path class="cls-12" d="M20.947,53.97A8,8,0,1,1,20.928,46"/><path class="cls-12" d="M41.057,58a12,12,0,1,1,17.886,0"/><path class="cls-12" d="M43.432,54.568a8,8,0,1,1,13.2-.095"/><rect class="cls-12" height="8" rx="4" width="20" x="10" y="46"/><polyline class="cls-12" points="49 48 44 26 48 26 52 22"/><path class="cls-12" d="M48.268,51a2,2,0,1,1,3.575-.222"/><polyline class="cls-12" points="45 31 28.828 47.172 21 27"/><rect class="cls-12" height="4" rx="2" width="10" x="16" y="23"/><line class="cls-12" x1="27" x2="25" y1="50" y2="50"/><line class="cls-12" x1="21" x2="14" y1="27" y2="46"/><line class="cls-12" x1="45" x2="22" y1="31" y2="31"/><rect class="cls-12" height="4" width="24" x="38" y="58"/><polyline class="cls-12" points="40 58 47 51 53 51 60 58"/><polyline class="cls-12" points="46 58 49 55 51 55 54 58"/><rect class="cls-12" height="18" width="16" x="2" y="2"/><line class="cls-12" x1="8" x2="8" y1="20" y2="40"/><line class="cls-12" x1="12" x2="12" y1="20" y2="38"/><path class="cls-12" d="M7,17V6h3.5A2.5,2.5,0,0,1,13,8.5h0A2.5,2.5,0,0,1,10.5,11H7"/><path class="cls-12" d="M37,8a2.982,2.982,0,0,0-1.08.208,4,4,0,0,0-7.84,0,3,3,0,1,0,1.114,4.825,2.985,2.985,0,0,0,5.612,0A3,3,0,1,0,37,8Z"/><path class="cls-12" d="M59,8a2.982,2.982,0,0,0-1.08.208,4,4,0,0,0-7.84,0,3,3,0,1,0,1.114,4.825,2.985,2.985,0,0,0,5.612,0A3,3,0,1,0,59,8Z"/><path class="cls-12" d="M46.6,12.8a6,6,0,0,1-7.209,0"/><path class="cls-12" d="M37,8A6,6,0,0,1,49,8"/></g></svg>