<?xml version="1.0" encoding="iso-8859-1"?>
<!-- Generator: Adobe Illustrator 20.0.0, SVG Export Plug-In . SVG Version: 6.00 Build 0)  -->
<svg version="1.1" id="Layer_1_1_" xmlns="http://www.w3.org/2000/svg" xmlns:xlink="http://www.w3.org/1999/xlink" x="0px" y="0px"
	 viewBox="0 0 64 64" style="enable-background:new 0 0 64 64;" xml:space="preserve">
<g id="Guide">
	<g>
	</g>
	<g>
	</g>
	<g>
	</g>
	<g>
	</g>
	<g>
	</g>
	<g>
	</g>
	<g>
	</g>
	<g>
	</g>
	<g>
	</g>
	<g>
	</g>
	<g>
	</g>
	<g>
	</g>
	<g>
	</g>
	<g>
	</g>
	<g>
	</g>
	<g>
	</g>
	<g>
	</g>
	<g>
	</g>
	<g>
	</g>
	<g>
	</g>
	<g>
	</g>
	<g>
	</g>
	<g>
	</g>
	<g>
	</g>
	<g>
	</g>
	<g>
	</g>
	<g>
	</g>
	<g>
	</g>
	<g>
	</g>
	<g>
	</g>
	<g>
	</g>
	<g>
	</g>
	<g>
	</g>
	<g>
	</g>
	<g>
	</g>
	<g>
	</g>
</g>
<path d="M59,30h-3v-8h3c0.552,0,1-0.448,1-1v-6c0-2.757-2.243-5-5-5h-0.54C55.414,8.937,56,7.538,56,6c0-3.309-2.691-6-6-6
	s-6,2.691-6,6c0,1.538,0.586,2.937,1.54,4H45c-1.641,0-3.088,0.806-4,2.031C40.088,10.806,38.641,10,37,10h-0.54
	C37.414,8.937,38,7.538,38,6c0-3.309-2.691-6-6-6s-6,2.691-6,6c0,1.538,0.586,2.937,1.54,4H27c-1.641,0-3.088,0.806-4,2.031
	C22.088,10.806,20.641,10,19,10h-0.54C19.414,8.937,20,7.538,20,6c0-3.309-2.691-6-6-6S8,2.691,8,6c0,1.538,0.586,2.937,1.54,4H9
	c-2.757,0-5,2.243-5,5v6c0,0.552,0.448,1,1,1h3v8H5c-2.757,0-5,2.243-5,5v24c0,0.552,0.448,1,1,1h2.101C3.566,62.279,5.586,64,8,64
	s4.434-1.721,4.899-4h0.202c0.465,2.279,2.484,4,4.899,4s4.434-1.721,4.899-4H25h3.101c0.465,2.279,2.484,4,4.899,4
	s4.434-1.721,4.899-4H41h9.336c0.465,2.279,2.484,4,4.899,4s4.434-1.721,4.899-4H63c0.552,0,1-0.448,1-1V35
	C64,32.243,61.757,30,59,30z M46,6c0-2.206,1.794-4,4-4s4,1.794,4,4s-1.794,4-4,4S46,8.206,46,6z M45,12h10c1.654,0,3,1.346,3,3v5
	h-2v-5h-2v15h-3v-8h-2v8h-3V15h-2v5h-2v-5C42,13.346,43.346,12,45,12z M38,22h3h3v8h-6V22z M28,6c0-2.206,1.794-4,4-4s4,1.794,4,4
	s-1.794,4-4,4S28,8.206,28,6z M27,12h10c1.654,0,3,1.346,3,3v5h-2v-5h-2v15h-3v-8h-2v8h-3V15h-2v5h-2v-5C24,13.346,25.346,12,27,12z
	 M20,30v-8h3h3v8H20z M10,6c0-2.206,1.794-4,4-4s4,1.794,4,4s-1.794,4-4,4S10,8.206,10,6z M8,15v5H6v-5c0-1.654,1.346-3,3-3h10
	c1.654,0,3,1.346,3,3v5h-2v-5h-2v15h-3v-8h-2v8h-3V15H8z M8,62c-1.654,0-3-1.346-3-3s1.346-3,3-3s3,1.346,3,3S9.654,62,8,62z M18,62
	c-1.302,0-2.402-0.839-2.816-2H17h3.816C20.402,61.161,19.302,62,18,62z M18,58V36h6v22H18z M33,62c-1.654,0-3-1.346-3-3
	s1.346-3,3-3s3,1.346,3,3S34.654,62,33,62z M33,54c-2.414,0-4.434,1.721-4.899,4H26V35c0-0.552-0.448-1-1-1h-8c-0.552,0-1,0.448-1,1
	v23h-3.101c-0.465-2.279-2.484-4-4.899-4s-4.434,1.721-4.899,4H2V35c0-1.654,1.346-3,3-3h4h5h5h8h5h5h4.026
	C40.391,32.838,40,33.87,40,35v23h-2.101C37.434,55.721,35.414,54,33,54z M55.235,62c-1.302,0-2.402-0.839-2.816-2h5.631
	C57.637,61.161,56.537,62,55.235,62z M62,58H42V35c0-1.654,1.346-3,3-3h1h4h5h4c1.654,0,3,1.346,3,3V58z"/>
<path d="M57.895,34H46.105C44.944,34,44,34.944,44,36.105V46c0,0.552,0.448,1,1,1h14c0.552,0,1-0.448,1-1v-9.895
	C60,34.944,59.056,34,57.895,34z M58,45H46v-8.895C46,36.047,46.047,36,46.105,36h11.789C57.953,36,58,36.047,58,36.105V45z"/>
<path d="M57,50c-1.654,0-3,1.346-3,3s1.346,3,3,3s3-1.346,3-3S58.654,50,57,50z M57,54c-0.551,0-1-0.449-1-1s0.449-1,1-1
	s1,0.449,1,1S57.551,54,57,54z"/>
<path d="M47,50c-1.654,0-3,1.346-3,3s1.346,3,3,3s3-1.346,3-3S48.654,50,47,50z M47,54c-0.551,0-1-0.449-1-1s0.449-1,1-1
	s1,0.449,1,1S47.551,54,47,54z"/>
<path d="M29,44h8c0.552,0,1-0.448,1-1v-8c0-0.552-0.448-1-1-1h-8c-0.552,0-1,0.448-1,1v8C28,43.552,28.448,44,29,44z M30,36h6v6h-6
	V36z"/>
<path d="M13,34H5c-0.552,0-1,0.448-1,1v8c0,0.552,0.448,1,1,1h8c0.552,0,1-0.448,1-1v-8C14,34.448,13.552,34,13,34z M12,42H6v-6h6
	V42z"/>
<rect x="36" y="46" width="2" height="2"/>
<rect x="32" y="46" width="2" height="2"/>
<rect x="28" y="46" width="2" height="2"/>
<rect x="12" y="46" width="2" height="2"/>
<rect x="8" y="46" width="2" height="2"/>
<rect x="4" y="46" width="2" height="2"/>
</svg>
